<svg aria-hidden="true" style="position: absolute; overflow: hidden;" version="1.1" xmlns="http://www.w3.org/2000/svg" xmlns:xlink="http://www.w3.org/1999/xlink">
<defs>
<symbol id="arrow" viewBox="0 0 32 32">
<title>arrow</title>
<path d="M31 20h-10c-0.552 0-1 0.448-1 1s0.448 1 1 1h7.635c-2.249 4.725-7.053 8-12.635 8-7.051 0-12.868-5.218-13.841-12h-2.021c0.986 7.89 7.704 14 15.862 14 6.028 0 11.272-3.336 14-8.26v7.26c0 0.552 0.448 1 1 1s1-0.448 1-1v-10c0-1.062-1-1-1-1zM1 12h10c0.552 0 1-0.448 1-1s-0.448-1-1-1h-7.641c2.247-4.728 7.058-8 12.641-8 7.051 0 12.868 5.218 13.841 12h2.021c-0.986-7.891-7.704-14-15.862-14-6.028 0-11.272 3.336-14 8.26v-7.26c0-0.552-0.448-1-1-1s-1 0.448-1 1v10c0 0.969 1 1 1 1z"></path>
</symbol>
<symbol id="basket" viewBox="0 0 32 32">
<title>basket</title>
<path d="M30.312 12.089c-0.539-0.119-1.074 0.217-1.195 0.756l-3.409 15.147h-19.45l-3.375-15.125c-0.12-0.539-0.656-0.874-1.194-0.758-0.539 0.121-0.878 0.655-0.758 1.194l3.55 15.907c0.103 0.451 0.501 0.782 0.976 0.782h21.051c0.468 0 0.873-0.324 0.975-0.78l3.585-15.928c0.121-0.539-0.217-1.074-0.756-1.195z"></path>
<path d="M31 12.021h-30c-0.552 0-1 0.448-1 1s0.448 1 1 1h30c0.552 0 1-0.448 1-1s-0.448-1-1-1zM29 15.992h-26c-0.552 0-1 0.448-1 1s0.448 1 1 1h26c0.552 0 1-0.448 1-1s-0.448-1-1-1zM28 19.992h-24c-0.552 0-1 0.448-1 1s0.448 1 1 1h24c0.552 0 1-0.448 1-1s-0.448-1-1-1zM27 23.992h-22c-0.552 0-1 0.448-1 1s0.448 1 1 1h22c0.552 0 1-0.448 1-1s-0.448-1-1-1z"></path>
<path d="M11.865 28.789l-1.833-15.583c-0.065-0.548-0.567-0.943-1.11-0.876-0.548 0.065-0.94 0.562-0.876 1.11l1.833 15.583c0.060 0.508 0.492 0.883 0.992 0.883 0.039 0 0.078-0.002 0.118-0.007 0.548-0.065 0.94-0.562 0.876-1.11zM23.23 12.33c-0.548-0.066-1.046 0.327-1.11 0.876l-1.833 15.583c-0.065 0.548 0.327 1.046 0.876 1.11 0.039 0.005 0.079 0.007 0.118 0.007 0.5 0 0.931-0.374 0.992-0.883l1.833-15.583c0.065-0.548-0.327-1.046-0.876-1.11zM16 12.323c-0.552 0-1 0.448-1 1v15.669c0 0.552 0.448 1 1 1s1-0.448 1-1v-15.669c0-0.552-0.448-1-1-1z"></path>
<path d="M14.431 2.062c-0.524-0.177-1.091 0.103-1.269 0.625l-3.373 9.906c-0.177 0.523 0.102 1.091 0.625 1.269 0.107 0.036 0.215 0.054 0.322 0.054 0.417 0 0.806-0.262 0.947-0.679l3.373-9.906c0.177-0.523-0.102-1.091-0.625-1.269zM22.369 12.594l-3.375-9.906c-0.179-0.523-0.748-0.802-1.269-0.625-0.523 0.178-0.803 0.747-0.625 1.269l3.375 9.906c0.142 0.416 0.53 0.678 0.947 0.678 0.107 0 0.216-0.017 0.322-0.053 0.523-0.178 0.803-0.747 0.625-1.269z"></path>
</symbol>
<symbol id="clock" viewBox="0 0 32 32">
<title>clock</title>
<path d="M16 0c-8.822 0-16 7.178-16 16s7.178 16 16 16 16-7.178 16-16-7.178-16-16-16zM16 30c-7.72 0-14-6.28-14-14s6.28-14 14-14 14 6.28 14 14-6.28 14-14 14z"></path>
<path d="M17 6h-2v10.414l6.293 6.293 1.414-1.414-5.707-5.707z"></path>
</symbol>
<symbol id="heart" viewBox="0 0 32 32">
<title>heart</title>
<path d="M23.667 1.333c-3.549 0-6.481 3.297-7.667 4.853-1.186-1.556-4.117-4.853-7.667-4.853-4.595 0-8.333 4.225-8.333 9.417 0 2.833 1.124 5.473 3.092 7.279 0.030 0.052 0.065 0.096 0.105 0.136l0 0 12.332 12.307c0.13 0.13 0.3 0.195 0.471 0.195s0.341-0.065 0.471-0.195l12.874-12.865c0.104-0.098 0.207-0.198 0.322-0.326 0.046-0.046 0.086-0.098 0.117-0.155l0.002-0.003c1.429-1.75 2.214-4.007 2.214-6.372 0-5.192-3.738-9.417-8.333-9.417zM28.676 16.372c-0.017 0.020-0.034 0.042-0.049 0.065l-0.001 0.002c-0.063 0.072-0.131 0.135-0.199 0.199l-12.428 12.419-11.708-11.684c-0.040-0.078-0.092-0.143-0.154-0.198l-0.001-0.001c-1.782-1.556-2.803-3.898-2.803-6.425 0-4.457 3.14-8.083 7-8.083 3.816 0 7.074 4.978 7.106 5.028 0.246 0.38 0.875 0.38 1.121 0 0.033-0.050 3.29-5.028 7.106-5.028 3.86 0 7 3.626 7 8.083 0 2.1-0.707 4.097-1.99 5.622z"></path>
</symbol>
</defs>
</svg>
