<svg aria-hidden="true" style="position: absolute; width: 0; height: 0; overflow: hidden;" version="1.1" xmlns="http://www.w3.org/2000/svg" xmlns:xlink="http://www.w3.org/1999/xlink">
<defs>
<symbol id="compass" viewBox="0 0 32 32">
<title>compass</title>
<path d="M17.333 5.401v-0.469c0.803-0.473 1.333-1.316 1.333-2.266 0-1.471-1.196-2.667-2.667-2.667s-2.667 1.196-2.667 2.667c0 0.95 0.53 1.793 1.333 2.266v0.469c-6.728 0.671-12 6.364-12 13.266 0 7.352 5.981 13.333 13.333 13.333s13.333-5.981 13.333-13.333c0-6.902-5.272-12.595-12-13.266zM16 1.333c0.735 0 1.333 0.598 1.333 1.333 0 0.298-0.107 0.575-0.283 0.802-0.11-0.079-0.237-0.136-0.383-0.136h-1.333c-0.146 0-0.274 0.056-0.383 0.136-0.176-0.227-0.283-0.505-0.283-0.802 0-0.735 0.598-1.333 1.333-1.333zM16 29.333c-5.881 0-10.667-4.785-10.667-10.667s4.785-10.667 10.667-10.667 10.667 4.785 10.667 10.667-4.785 10.667-10.667 10.667z"></path>
<path d="M21.642 12.104l-7.333 4.667c-0.082 0.054-0.15 0.122-0.202 0.203l-0.002 0.003-0.001-0.001-4.667 7.333c-0.065 0.101-0.104 0.225-0.104 0.358 0 0.368 0.299 0.667 0.667 0.667 0.133 0 0.257-0.039 0.361-0.106l-0.003 0.002 7.332-4.668c0.083-0.053 0.152-0.121 0.204-0.201l0.002-0.003 4.667-7.333c0.065-0.101 0.104-0.225 0.104-0.358 0-0.368-0.299-0.667-0.667-0.667-0.133 0-0.257 0.039-0.361 0.106l0.003-0.002zM12.173 22.494l2.61-4.101 1.491 1.491-4.101 2.61z"></path>
</symbol>
<symbol id="globe" viewBox="0 0 32 32">
<title>globe</title>
<path d="M29.068 6.776c-0.272-0.385-0.524-0.711-0.788-1.027l0.020 0.024c-2.938-3.525-7.359-5.774-12.295-5.774l-0.024 0.001-0.014-0.001c-0.018 0-0.036 0.002-0.055 0.002-4.899 0.028-9.281 2.27-12.202 5.772-0.269 0.324-0.525 0.659-0.768 1.003-1.839 2.562-2.941 5.76-2.941 9.216 0 0.004 0 0.008 0 0.012v-0.001c0 3.435 1.091 6.619 2.941 9.228 0.244 0.344 0.499 0.68 0.768 1.003 2.92 3.502 7.302 5.744 12.202 5.772 0.019 0 0.037 0.002 0.055 0.002l0.014-0.001 0.024 0.001c4.937 0 9.357-2.248 12.295-5.773 0.269-0.323 0.525-0.659 0.768-1.003 1.839-2.562 2.941-5.76 2.941-9.217 0-0.004 0-0.009 0-0.013v0.001c0-3.434-1.092-6.618-2.941-9.228zM11.326 2.081c-1.471 1.419-2.694 3.493-3.536 5.983-1.129-0.422-2.145-0.929-3.021-1.503 1.709-2.025 3.925-3.572 6.453-4.448l0.103-0.031zM3.999 7.565c0.995 0.665 2.146 1.246 3.418 1.724-0.549 2.005-0.864 4.231-0.876 6.58h-5.225c0.029-3.116 1.030-5.993 2.713-8.349l-0.030 0.044zM1.365 17.182h5.201c0.084 2.005 0.389 3.901 0.891 5.715l-0.042-0.177c-1.273 0.479-2.422 1.060-3.416 1.725-1.455-2.034-2.408-4.519-2.63-7.21l-0.004-0.053zM4.774 25.446c0.876-0.573 1.889-1.079 3.015-1.5 0.842 2.49 2.066 4.563 3.537 5.982-2.581-0.869-4.835-2.443-6.553-4.482zM15.348 30.649c-2.695-0.369-5.021-3.133-6.339-7.113 1.901-0.57 4.053-0.915 6.339-0.971v8.084zM15.348 21.252c-2.411 0.058-4.684 0.43-6.708 1.051-0.414-1.573-0.68-3.3-0.759-5.12h7.467v4.069zM15.348 15.869h-7.494c0.012-2.206 0.299-4.289 0.793-6.162 2.021 0.619 4.292 0.992 6.701 1.049v5.113zM15.348 9.445c-2.285-0.056-4.436-0.4-6.335-0.97 1.318-3.979 3.642-6.745 6.335-7.115v8.084zM30.692 15.869h-5.3c-0.012-2.339-0.323-4.556-0.868-6.554 1.3-0.483 2.475-1.074 3.487-1.75 1.652 2.311 2.653 5.188 2.682 8.297l0 0.007zM27.238 6.562c-0.894 0.585-1.932 1.101-3.088 1.527-0.85-2.523-2.091-4.623-3.585-6.047 2.681 0.9 4.938 2.464 6.655 4.498l0.018 0.022zM16.661 1.37c2.665 0.412 4.961 3.173 6.265 7.124-1.881 0.557-4.008 0.895-6.265 0.95v-8.075zM16.661 10.757c2.38-0.056 4.626-0.422 6.629-1.028 0.491 1.867 0.776 3.943 0.787 6.14h-7.417v-5.113zM16.661 17.182h7.39c-0.078 1.847-0.348 3.594-0.792 5.27l0.038-0.171c-2.006-0.608-4.254-0.972-6.635-1.030l-0.001-4.070zM16.661 30.639v-8.074c2.258 0.055 4.385 0.393 6.269 0.95-1.306 3.953-3.604 6.712-6.269 7.124zM20.565 29.968c1.494-1.424 2.737-3.522 3.587-6.046 1.153 0.425 2.191 0.94 3.083 1.524-1.744 2.070-4.041 3.66-6.67 4.522zM28.010 24.445c-1.012-0.676-2.187-1.268-3.487-1.751 0.456-1.629 0.757-3.517 0.839-5.461l0.002-0.051h5.28c-0.225 2.744-1.178 5.229-2.663 7.307l0.030-0.044z"></path>
</symbol>
<symbol id="safebox" viewBox="0 0 32 32">
<title>safebox</title>
<path d="M29.091 0h-26.182c-1.604 0-2.909 1.305-2.909 2.909v26.182c0 1.604 1.305 2.909 2.909 2.909h26.182c1.604 0 2.909-1.305 2.909-2.909v-26.182c-0-1.604-1.305-2.909-2.909-2.909zM30.545 29.091c0 0.802-0.652 1.455-1.455 1.455h-26.182c-0.803 0-1.455-0.653-1.455-1.455v-26.182c0-0.802 0.652-1.455 1.455-1.455h26.182c0.803 0 1.455 0.653 1.455 1.455v26.182z"></path>
<path d="M16 21.818c3.209 0 5.818-2.61 5.818-5.818s-2.609-5.818-5.818-5.818-5.818 2.61-5.818 5.818 2.609 5.818 5.818 5.818zM16 11.636c0.941 0 1.807 0.306 2.52 0.814l-1.052 1.053c-0.433-0.255-0.931-0.412-1.468-0.412-1.604 0-2.909 1.305-2.909 2.909s1.305 2.909 2.909 2.909 2.909-1.305 2.909-2.909c0-0.538-0.157-1.036-0.412-1.469l1.052-1.052c0.508 0.713 0.815 1.58 0.815 2.521 0 2.406-1.957 4.364-4.364 4.364s-4.364-1.957-4.364-4.364 1.957-4.364 4.364-4.364zM17.455 16c0 0.802-0.652 1.455-1.455 1.455s-1.455-0.653-1.455-1.455 0.652-1.455 1.455-1.455 1.455 0.653 1.455 1.455z"></path>
<path d="M26.909 4.364h-21.818c-0 0-0 0-0 0-0.401 0-0.727 0.325-0.727 0.727 0 0 0 0 0 0v-0 2.182h-0.727c-0 0-0 0-0 0-0.401 0-0.727 0.325-0.727 0.727 0 0 0 0 0 0v-0 4.364c0 0 0 0 0 0 0 0.401 0.325 0.727 0.727 0.727 0 0 0 0 0.001 0h0.727v5.818h-0.727c-0 0-0 0-0 0-0.401 0-0.727 0.325-0.727 0.727 0 0 0 0 0 0v-0 4.364c0 0 0 0 0 0 0 0.401 0.325 0.727 0.727 0.727 0 0 0 0 0.001 0h0.727v2.182c0 0 0 0 0 0 0 0.401 0.325 0.727 0.727 0.727 0 0 0 0 0 0h21.818c0 0 0 0 0 0 0.401 0 0.727-0.325 0.727-0.727 0-0 0-0 0-0v0-21.818c0-0 0-0 0-0 0-0.402-0.325-0.727-0.727-0.727-0 0-0 0-0 0h0zM26.182 26.182h-20.364v-2.182c0-0 0-0 0-0 0-0.401-0.325-0.727-0.727-0.727-0 0-0 0-0 0h-0.727v-2.909h0.727c0 0 0 0 0 0 0.401 0 0.727-0.325 0.727-0.727 0-0 0-0 0-0v0-7.273c0-0 0-0 0-0 0-0.401-0.325-0.727-0.727-0.727-0 0-0 0-0 0h-0.727v-2.909h0.727c0 0 0 0 0 0 0.401 0 0.727-0.325 0.727-0.727 0-0 0-0 0-0.001v0-2.182h20.364v20.364z"></path>
</symbol>
<symbol id="wheel" viewBox="0 0 32 32">
<title>wheel</title>
<path d="M16 8.351c-4.218 0-7.649 3.432-7.649 7.649s3.432 7.649 7.649 7.649 7.649-3.432 7.649-7.649-3.432-7.649-7.649-7.649zM16 21.737c-3.163 0-5.737-2.574-5.737-5.737s2.574-5.737 5.737-5.737 5.737 2.574 5.737 5.737-2.574 5.737-5.737 5.737z"></path>
<path d="M31.247 12.356l-2.459-0.535c-0.246-0.748-0.514-1.379-0.827-1.983l0.035 0.075 1.362-2.118c0.095-0.146 0.152-0.325 0.152-0.517 0-0.264-0.107-0.503-0.28-0.676l-3.832-3.832c-0.173-0.173-0.412-0.28-0.676-0.28-0.192 0-0.371 0.057-0.521 0.154l0.004-0.002-2.118 1.362c-0.53-0.277-1.161-0.545-1.814-0.764l-0.094-0.027-0.535-2.459c-0.097-0.434-0.478-0.753-0.934-0.753-0 0-0 0-0 0h-5.418c0 0-0 0-0 0-0.456 0-0.838 0.319-0.933 0.747l-0.001 0.006-0.535 2.459c-0.748 0.246-1.379 0.514-1.983 0.827l0.075-0.035-2.118-1.362c-0.146-0.095-0.325-0.152-0.517-0.152-0.264 0-0.503 0.107-0.676 0.28l-3.832 3.832c-0.173 0.173-0.28 0.412-0.28 0.676 0 0.192 0.057 0.371 0.154 0.521l-0.002-0.004 1.362 2.118c-0.277 0.53-0.545 1.161-0.764 1.814l-0.027 0.094-2.459 0.535c-0.434 0.097-0.753 0.478-0.753 0.934v0 5.418c0 0.456 0.319 0.837 0.747 0.933l0.006 0.001 2.459 0.535c0.246 0.748 0.514 1.379 0.827 1.983l-0.035-0.075-1.362 2.118c-0.095 0.146-0.152 0.325-0.152 0.517 0 0.264 0.107 0.503 0.28 0.676l3.832 3.832c0.173 0.173 0.412 0.28 0.676 0.28 0.192 0 0.371-0.057 0.521-0.154l-0.004 0.002 2.118-1.362c0.53 0.277 1.161 0.545 1.814 0.764l0.094 0.027 0.535 2.459c0.097 0.434 0.478 0.753 0.934 0.753 0 0 0 0 0 0h5.418c0 0 0 0 0 0 0.456 0 0.838-0.319 0.933-0.747l0.001-0.006 0.535-2.459c0.748-0.246 1.379-0.514 1.983-0.827l-0.075 0.035 2.118 1.362c0.146 0.095 0.325 0.152 0.517 0.152 0.264 0 0.503-0.107 0.676-0.28l3.832-3.832c0.173-0.173 0.28-0.412 0.28-0.676 0-0.192-0.057-0.371-0.154-0.521l0.002 0.004-1.361-2.118c0.277-0.53 0.545-1.161 0.764-1.814l0.027-0.094 2.459-0.535c0.434-0.097 0.753-0.478 0.753-0.934v0-5.418c-0-0.456-0.319-0.838-0.747-0.933l-0.006-0.001zM30.088 17.939l-2.255 0.49c-0.348 0.078-0.621 0.337-0.716 0.671l-0.002 0.007c-0.276 0.974-0.637 1.822-1.089 2.611l0.030-0.056c-0.078 0.135-0.124 0.297-0.124 0.47 0 0.192 0.057 0.371 0.154 0.521l-0.002-0.004 1.249 1.942-2.741 2.742-1.943-1.249c-0.146-0.095-0.325-0.152-0.517-0.152-0.173 0-0.335 0.046-0.475 0.126l0.005-0.002c-0.733 0.423-1.581 0.784-2.474 1.039l-0.081 0.020c-0.341 0.097-0.6 0.37-0.676 0.712l-0.001 0.006-0.49 2.255h-3.877l-0.49-2.255c-0.078-0.348-0.337-0.621-0.671-0.716l-0.007-0.002c-0.974-0.276-1.822-0.637-2.611-1.089l0.056 0.030c-0.135-0.078-0.297-0.123-0.47-0.123-0.192 0-0.371 0.057-0.521 0.154l0.004-0.002-1.942 1.249-2.742-2.742 1.249-1.942c0.095-0.146 0.152-0.325 0.152-0.517 0-0.173-0.046-0.335-0.126-0.475l0.002 0.005c-0.423-0.733-0.784-1.581-1.040-2.474l-0.020-0.081c-0.097-0.341-0.37-0.6-0.711-0.676l-0.006-0.001-2.255-0.49v-3.877l2.255-0.49c0.348-0.078 0.621-0.337 0.716-0.671l0.002-0.007c0.276-0.974 0.637-1.822 1.089-2.611l-0.030 0.056c0.078-0.135 0.124-0.297 0.124-0.47 0-0.192-0.057-0.371-0.154-0.521l0.002 0.004-1.249-1.942 2.741-2.742 1.943 1.249c0.146 0.095 0.325 0.152 0.517 0.152 0.173 0 0.335-0.046 0.475-0.126l-0.005 0.002c0.733-0.423 1.581-0.784 2.474-1.039l0.081-0.020c0.341-0.097 0.6-0.37 0.676-0.712l0.001-0.006 0.49-2.255h3.877l0.49 2.255c0.078 0.348 0.337 0.621 0.671 0.716l0.007 0.002c0.974 0.276 1.822 0.637 2.611 1.089l-0.056-0.030c0.135 0.078 0.297 0.123 0.47 0.123 0.192 0 0.371-0.057 0.521-0.154l-0.004 0.002 1.942-1.249 2.741 2.742-1.248 1.942c-0.095 0.146-0.152 0.325-0.152 0.517 0 0.173 0.046 0.335 0.126 0.475l-0.002-0.005c0.423 0.733 0.784 1.581 1.040 2.474l0.020 0.081c0.097 0.341 0.37 0.6 0.711 0.676l0.006 0.001 2.255 0.49z"></path>
</symbol>
</defs>
</svg>
