<svg aria-hidden="true" style="position:absolute" xmlns="http://www.w3.org/2000/svg" overflow="hidden"><defs><symbol id="arrow" viewBox="0 0 32 32"><path d="M31 20H21a1 1 0 000 2h7.635c-2.249 4.725-7.053 8-12.635 8-7.051 0-12.868-5.218-13.841-12H.138C1.124 25.89 7.842 32 16 32c6.028 0 11.272-3.336 14-8.26V31a1 1 0 002 0V21c0-1.062-1-1-1-1zM1 12h10a1 1 0 000-2H3.359C5.606 5.272 10.417 2 16 2c7.051 0 12.868 5.218 13.841 12h2.021C30.876 6.109 24.158 0 16 0 9.972 0 4.728 3.336 2 8.26V1a1 1 0 00-2 0v10c0 .969 1 1 1 1z"/></symbol><symbol id="basket" viewBox="0 0 32 32"><path d="M30.312 12.089a1.001 1.001 0 00-1.195.756l-3.409 15.147H6.258L2.883 12.867a1 1 0 00-1.952.436l3.55 15.907c.103.451.501.782.976.782h21.051a.998.998 0 00.975-.78l3.585-15.928a1 1 0 00-.756-1.195z"/><path d="M31 12.021H1a1 1 0 000 2h30a1 1 0 000-2zm-2 3.971H3a1 1 0 000 2h26a1 1 0 000-2zm-1 4H4a1 1 0 000 2h24a1 1 0 000-2zm-1 4H5a1 1 0 000 2h22a1 1 0 000-2z"/><path d="M11.865 28.789l-1.833-15.583a1.001 1.001 0 00-1.986.234l1.833 15.583a1 1 0 001.986-.234zM23.23 12.33a.998.998 0 00-1.11.876l-1.833 15.583a1 1 0 101.986.234l1.833-15.583a1 1 0 00-.876-1.11zM16 12.323a1 1 0 00-1 1v15.669a1 1 0 002 0V13.323a1 1 0 00-1-1z"/><path d="M14.431 2.062a1.001 1.001 0 00-1.269.625l-3.373 9.906a1.001 1.001 0 001.894.644l3.373-9.906a1.001 1.001 0 00-.625-1.269zm7.938 10.532l-3.375-9.906a1 1 0 00-1.894.644l3.375 9.906a1 1 0 001.894-.644z"/></symbol><symbol id="clock" viewBox="0 0 32 32"><path d="M16 0C7.178 0 0 7.178 0 16s7.178 16 16 16 16-7.178 16-16S24.822 0 16 0zm0 30C8.28 30 2 23.72 2 16S8.28 2 16 2s14 6.28 14 14-6.28 14-14 14z"/><path d="M17 6h-2v10.414l6.293 6.293 1.414-1.414L17 15.586z"/></symbol><symbol id="heart" viewBox="0 0 32 32"><path d="M23.667 1.333c-3.549 0-6.481 3.297-7.667 4.853-1.186-1.556-4.117-4.853-7.667-4.853C3.738 1.333 0 5.558 0 10.75c0 2.833 1.124 5.473 3.092 7.279.03.052.065.096.105.136l12.332 12.307a.663.663 0 00.942 0l12.874-12.865a5.27 5.27 0 00.322-.326.68.68 0 00.117-.155l.002-.003C31.215 15.373 32 13.116 32 10.751c0-5.192-3.738-9.417-8.333-9.417zm5.009 15.039a.65.65 0 00-.049.065l-.001.002c-.063.072-.131.135-.199.199L15.999 29.057 4.291 17.373a.672.672 0 00-.154-.198l-.001-.001c-1.782-1.556-2.803-3.898-2.803-6.425 0-4.457 3.14-8.083 7-8.083 3.816 0 7.074 4.978 7.106 5.028.246.38.875.38 1.121 0 .033-.05 3.29-5.028 7.106-5.028 3.86 0 7 3.626 7 8.083 0 2.1-.707 4.097-1.99 5.622z"/></symbol></defs></svg>