<svg aria-hidden="true" style="position:absolute;width:0;height:0" xmlns="http://www.w3.org/2000/svg" overflow="hidden"><defs><symbol id="compass" viewBox="0 0 32 32"><path d="M17.333 5.401v-.469c.803-.473 1.333-1.316 1.333-2.266 0-1.471-1.196-2.667-2.667-2.667s-2.667 1.196-2.667 2.667c0 .95.53 1.793 1.333 2.266v.469c-6.728.671-12 6.364-12 13.266C2.665 26.019 8.646 32 15.998 32s13.333-5.981 13.333-13.333c0-6.902-5.272-12.595-12-13.266zM16 1.333c.735 0 1.333.598 1.333 1.333 0 .298-.107.575-.283.802a.653.653 0 00-.383-.136h-1.333a.644.644 0 00-.383.136 1.31 1.31 0 01-.283-.802c0-.735.598-1.333 1.333-1.333zm0 28c-5.881 0-10.667-4.785-10.667-10.667S10.118 7.999 16 7.999s10.667 4.785 10.667 10.667S21.882 29.333 16 29.333z"/><path d="M21.642 12.104l-7.333 4.667a.686.686 0 00-.202.203l-.002.003-.001-.001-4.667 7.333a.667.667 0 00.924.919l-.003.002 7.332-4.668a.675.675 0 00.204-.201l.002-.003 4.667-7.333a.667.667 0 00-.924-.919l.003-.002zm-9.469 10.39l2.61-4.101 1.491 1.491-4.101 2.61z"/></symbol><symbol id="globe" viewBox="0 0 32 32"><path d="M29.068 6.776a15.653 15.653 0 00-.788-1.027l.02.024C25.362 2.248 20.941-.001 16.005-.001L15.981 0l-.014-.001-.055.002C11.013.029 6.631 2.271 3.71 5.773c-.269.324-.525.659-.768 1.003a15.786 15.786 0 00-2.941 9.216v.012-.001c0 3.435 1.091 6.619 2.941 9.228.244.344.499.68.768 1.003 2.92 3.502 7.302 5.744 12.202 5.772l.055.002.014-.001.024.001c4.937 0 9.357-2.248 12.295-5.773.269-.323.525-.659.768-1.003a15.787 15.787 0 002.941-9.217v-.013.001c0-3.434-1.092-6.618-2.941-9.228zM11.326 2.081C9.855 3.5 8.632 5.574 7.79 8.064a15.283 15.283 0 01-3.021-1.503 14.777 14.777 0 016.453-4.448l.103-.031zM3.999 7.565c.995.665 2.146 1.246 3.418 1.724a25.51 25.51 0 00-.876 6.58H1.316A14.544 14.544 0 014.029 7.52l-.03.044zm-2.634 9.617h5.201c.084 2.005.389 3.901.891 5.715l-.042-.177c-1.273.479-2.422 1.06-3.416 1.725a14.446 14.446 0 01-2.63-7.21l-.004-.053zm3.409 8.264a15.304 15.304 0 013.015-1.5c.842 2.49 2.066 4.563 3.537 5.982a14.733 14.733 0 01-6.553-4.482zm10.574 5.203c-2.695-.369-5.021-3.133-6.339-7.113 1.901-.57 4.053-.915 6.339-.971v8.084zm0-9.397c-2.411.058-4.684.43-6.708 1.051-.414-1.573-.68-3.3-.759-5.12h7.467v4.069zm0-5.383H7.854c.012-2.206.299-4.289.793-6.162 2.021.619 4.292.992 6.701 1.049v5.113zm0-6.424c-2.285-.056-4.436-.4-6.335-.97 1.318-3.979 3.642-6.745 6.335-7.115v8.084zm15.344 6.424h-5.3c-.012-2.339-.323-4.556-.868-6.554 1.3-.483 2.475-1.074 3.487-1.75a14.49 14.49 0 012.682 8.297v.007zm-3.454-9.307a15.323 15.323 0 01-3.088 1.527c-.85-2.523-2.091-4.623-3.585-6.047 2.681.9 4.938 2.464 6.655 4.498l.018.022zM16.661 1.37c2.665.412 4.961 3.173 6.265 7.124-1.881.557-4.008.895-6.265.95V1.369zm0 9.387c2.38-.056 4.626-.422 6.629-1.028.491 1.867.776 3.943.787 6.14H16.66v-5.113zm0 6.425h7.39a24.506 24.506 0 01-.792 5.27l.038-.171c-2.006-.608-4.254-.972-6.635-1.03l-.001-4.07zm0 13.457v-8.074c2.258.055 4.385.393 6.269.95-1.306 3.953-3.604 6.712-6.269 7.124zm3.904-.671c1.494-1.424 2.737-3.522 3.587-6.046 1.153.425 2.191.94 3.083 1.524a14.745 14.745 0 01-6.67 4.522zm7.445-5.523c-1.012-.676-2.187-1.268-3.487-1.751.456-1.629.757-3.517.839-5.461l.002-.051h5.28a14.54 14.54 0 01-2.663 7.307l.03-.044z"/></symbol><symbol id="safebox" viewBox="0 0 32 32"><path d="M29.091 0H2.909A2.912 2.912 0 000 2.909v26.182A2.912 2.912 0 002.909 32h26.182A2.912 2.912 0 0032 29.091V2.909A2.912 2.912 0 0029.091 0zm1.454 29.091c0 .802-.652 1.455-1.455 1.455H2.908a1.456 1.456 0 01-1.455-1.455V2.909c0-.802.652-1.455 1.455-1.455H29.09c.803 0 1.455.653 1.455 1.455v26.182z"/><path d="M16 21.818c3.209 0 5.818-2.61 5.818-5.818S19.209 10.182 16 10.182s-5.818 2.61-5.818 5.818 2.609 5.818 5.818 5.818zm0-10.182c.941 0 1.807.306 2.52.814l-1.052 1.053A2.883 2.883 0 0016 13.091c-1.604 0-2.909 1.305-2.909 2.909s1.305 2.909 2.909 2.909 2.909-1.305 2.909-2.909c0-.538-.157-1.036-.412-1.469l1.052-1.052A4.33 4.33 0 0120.364 16c0 2.406-1.957 4.364-4.364 4.364S11.636 18.407 11.636 16s1.957-4.364 4.364-4.364zM17.455 16c0 .802-.652 1.455-1.455 1.455s-1.455-.653-1.455-1.455.652-1.455 1.455-1.455 1.455.653 1.455 1.455z"/><path d="M26.909 4.364H5.091a.727.727 0 00-.727.727v2.182h-.727A.727.727 0 002.91 8v4.364c0 .401.325.727.727.727h.728v5.818h-.727a.727.727 0 00-.727.727V24c0 .401.325.727.727.727h.728v2.182c0 .401.325.727.727.727h21.818a.727.727 0 00.727-.727V5.091a.726.726 0 00-.727-.727zm-.727 21.818H5.818V24a.727.727 0 00-.727-.727h-.727v-2.909h.727a.727.727 0 00.727-.727v-7.273a.727.727 0 00-.727-.727h-.727V8.728h.727a.727.727 0 00.727-.727V5.818h20.364v20.364z"/></symbol><symbol id="wheel" viewBox="0 0 32 32"><path d="M16 8.351c-4.218 0-7.649 3.432-7.649 7.649s3.432 7.649 7.649 7.649 7.649-3.432 7.649-7.649S20.217 8.351 16 8.351zm0 13.386c-3.163 0-5.737-2.574-5.737-5.737s2.574-5.737 5.737-5.737 5.737 2.574 5.737 5.737-2.574 5.737-5.737 5.737z"/><path d="M31.247 12.356l-2.459-.535a13.126 13.126 0 00-.827-1.983l.035.075 1.362-2.118a.953.953 0 00-.128-1.193L25.398 2.77a.953.953 0 00-1.197-.126l.004-.002-2.118 1.362a12.766 12.766 0 00-1.814-.764l-.094-.027-.535-2.459a.957.957 0 00-.934-.753h-5.418a.956.956 0 00-.933.747l-.001.006-.535 2.459c-.748.246-1.379.514-1.983.827l.075-.035-2.118-1.362a.953.953 0 00-1.193.128L2.772 6.603A.953.953 0 002.646 7.8l-.002-.004 1.362 2.118c-.277.53-.545 1.161-.764 1.814l-.027.094-2.459.535a.957.957 0 00-.753.934v5.418c0 .456.319.837.747.933l.006.001 2.459.535c.246.748.514 1.379.827 1.983l-.035-.075-1.362 2.118a.953.953 0 00.128 1.193l3.832 3.832a.953.953 0 001.197.126l-.004.002 2.118-1.362c.53.277 1.161.545 1.814.764l.094.027.535 2.459a.957.957 0 00.934.753h5.418a.956.956 0 00.933-.747l.001-.006.535-2.459a13.126 13.126 0 001.983-.827l-.075.035 2.118 1.362a.953.953 0 001.193-.128l3.832-3.832a.953.953 0 00.126-1.197l.002.004-1.361-2.118c.277-.53.545-1.161.764-1.814l.027-.094 2.459-.535a.957.957 0 00.753-.934V13.29a.956.956 0 00-.747-.933l-.006-.001zm-1.159 5.583l-2.255.49a.96.96 0 00-.716.671l-.002.007a11.453 11.453 0 01-1.089 2.611l.03-.056a.957.957 0 00.03.991l-.002-.004 1.249 1.942-2.741 2.742-1.943-1.249a.949.949 0 00-.992-.026l.005-.002c-.733.423-1.581.784-2.474 1.039l-.081.02a.958.958 0 00-.676.712l-.001.006-.49 2.255h-3.877l-.49-2.255a.96.96 0 00-.671-.716l-.007-.002a11.453 11.453 0 01-2.611-1.089l.056.03a.957.957 0 00-.991.031l.004-.002-1.942 1.249-2.742-2.742 1.249-1.942a.949.949 0 00.026-.992l.002.005a11.152 11.152 0 01-1.04-2.474l-.02-.081a.958.958 0 00-.711-.676l-.006-.001-2.255-.49v-3.877l2.255-.49a.96.96 0 00.716-.671l.002-.007c.276-.974.637-1.822 1.089-2.611l-.03.056a.957.957 0 00-.03-.991l.002.004-1.249-1.942L7.41 4.67l1.943 1.249a.949.949 0 00.992.026l-.005.002a11.103 11.103 0 012.474-1.039l.081-.02c.341-.097.6-.37.676-.712l.001-.006.49-2.255h3.877l.49 2.255a.96.96 0 00.671.716l.007.002c.974.276 1.822.637 2.611 1.089l-.056-.03a.957.957 0 00.991-.031l-.004.002 1.942-1.249 2.741 2.742-1.248 1.942a.949.949 0 00-.026.992l-.002-.005c.423.733.784 1.581 1.04 2.474l.02.081c.097.341.37.6.711.676l.006.001 2.255.49z"/></symbol></defs></svg>